# xmcd CD database file
#
# Track frame offsets:
#	150
#	18913
#	37742
#	61896
#	80743
#	95362
#	113051
#	133485
#	149801
#	168848
#	184956
#	200290
#	220618
#	235960
#	250362
#	266094
#	282606
#	297558
#	316771
#	335830
#
# Disc length: 4728 seconds
#
# Revision: 0
# Processed by: cddbd v1.4PL0 Copyright (c) Steve Scherf et al.
# Submitted via: CDex 1.40Beta9
#
DISCID=3a127614
DTITLE=Nuovo interprete -   
DYEAR=1900
DGENRE=Blues
TTITLE0=Track No01
TTITLE1=Track No02
TTITLE2=Track No03
TTITLE3=Track No04
TTITLE4=Track No05
TTITLE5=Track No06
TTITLE6=Track No07
TTITLE7=Track No08
TTITLE8=Track No09
TTITLE9=Track No10
TTITLE10=Track No11
TTITLE11=Track No12
TTITLE12=Track No13
TTITLE13=Track No14
TTITLE14=Track No15
TTITLE15=Track No16
TTITLE16=Track No17
TTITLE17=Track No18
TTITLE18=Track No19
TTITLE19=Track No20
EXTD=ID3G: 0
EXTT0=
EXTT1=
EXTT2=
EXTT3=
EXTT4=
EXTT5=
EXTT6=
EXTT7=
EXTT8=
EXTT9=
EXTT10=
EXTT11=
EXTT12=
EXTT13=
EXTT14=
EXTT15=
EXTT16=
EXTT17=
EXTT18=
EXTT19=
PLAYORDER=
